<?xml version="1.0" encoding="UTF-8"?>
<svg id="Livello_1" data-name="Livello 1" xmlns="http://www.w3.org/2000/svg" xmlns:xlink="http://www.w3.org/1999/xlink" viewBox="0 0 595.27557373046875 595.27557373046875">
  <defs>
    <linearGradient id="Sfumatura_senza_nome_55" data-name="Sfumatura senza nome 55" x1="384.641495509593369" y1="352.66990958104725" x2="365.532650290194795" y2="216.70341087721232" gradientUnits="userSpaceOnUse">
      <stop offset="0" stop-color="#e0e0e0"/>
      <stop offset=".178975932922569" stop-color="#dcdcdc"/>
      <stop offset=".324031936673513" stop-color="#d2d2d2"/>
      <stop offset=".457266227344344" stop-color="#c1c1c1"/>
      <stop offset=".583383242373853" stop-color="#aaaaa9"/>
      <stop offset=".704562974468314" stop-color="#8b8b8a"/>
      <stop offset=".821954984978194" stop-color="#656564"/>
      <stop offset=".934198886948327" stop-color="#3a3a38"/>
      <stop offset="1" stop-color="#1d1d1b"/>
    </linearGradient>
    <linearGradient id="Sfumatura_senza_nome_54" data-name="Sfumatura senza nome 54" x1="203.659110494392735" y1="76.274054209347923" x2="260.120651172681505" y2="536.116401350511296" gradientUnits="userSpaceOnUse">
      <stop offset="0" stop-color="#740ee0"/>
      <stop offset=".186540946383169" stop-color="#720edc"/>
      <stop offset=".332063768531871" stop-color="#6e0ed3"/>
      <stop offset=".463763623515027" stop-color="#6610c2"/>
      <stop offset=".587337404080092" stop-color="#5c12ab"/>
      <stop offset=".70517173021336" stop-color="#4f148c"/>
      <stop offset=".818783291058837" stop-color="#3e1767"/>
      <stop offset=".926853904380198" stop-color="#2b1a3c"/>
      <stop offset="1" stop-color="#1d1d1b"/>
    </linearGradient>
    <linearGradient id="Sfumatura_senza_nome_44" data-name="Sfumatura senza nome 44" x1="468.465178911461408" y1="126.70750272465375" x2="323.165284720374189" y2="191.399183590820968" gradientUnits="userSpaceOnUse">
      <stop offset="0" stop-color="#430691"/>
      <stop offset="1" stop-color="#1d1d1b"/>
    </linearGradient>
  </defs>
  <rect width="595.27557373046875" height="595.27557373046875" rx="70.743859048077866" ry="70.743859048077866" style="stroke-width: 0px;"/>
  <path d="m295.323845934223755,355.720361781259271c73.77781593472082,17.434897810298935,147.72017495097225-28.239978636440355,165.155059029743825-102.017796807805098l-133.58643222610408-31.568631289987934-31.568626803639745,133.586428097793032Z" style="fill: url(#Sfumatura_senza_nome_55); stroke-width: 0px;"/>
  <path d="m170.268036906122688,176.061712632193121c-.610713710159871,2.584248932033006-1.137678612357377,5.168497864065102-1.603554016041016,7.751115325818319l-56.479869809418233,273.009875005783215c-11.022213248031221,48.478233157551585,29.716506150197347,93.037674689629057,80.098846405265249,87.610498148085753h.00036254895349c31.713425779497811-3.416117503094938,46.414241972053787-18.407516680932531,53.278743835029672-48.937945229074103l32.734907452619154-144.54681708845601,33.428463598402232-141.457900014809638,33.429188696281926-141.457900014814186c-78.125673732321957-18.46208029826721-156.425008412836178,29.90412523301984-174.887088711092474,108.02907386746665Z" style="fill: url(#Sfumatura_senza_nome_54); stroke-width: 0px;"/>
  <path d="m484.076105892858322,241.74837733847562c20.200777330337587-85.482109287226194-32.720102004024739-171.154836512417205-118.202213882714204-191.355597932831188l-36.576692232432833,154.778910898413415,154.778906115147038,36.576687034417773Z" style="fill: url(#Sfumatura_senza_nome_44); stroke-width: 0px;"/>
</svg>